<?xml version="1.0" encoding="UTF-8" standalone="no"?>
<svg width="656px" height="174px" viewBox="0 0 656 174" version="1.1" xmlns="http://www.w3.org/2000/svg" xmlns:xlink="http://www.w3.org/1999/xlink">
    <!-- Generator: Sketch 44.1 (41455) - http://www.bohemiancoding.com/sketch -->
    <title>Artboard</title>
    <desc>Created with Sketch.</desc>
    <defs>
        <linearGradient x1="100%" y1="0%" x2="0%" y2="100%" id="linearGradient-1">
            <stop stop-color="#1DE9B6" offset="0%"></stop>
            <stop stop-color="#00B686" offset="100%"></stop>
        </linearGradient>
    </defs>
    <g id="Logotipo" stroke="none" stroke-width="1" fill="none" fill-rule="evenodd">
        <g id="Artboard">
            <path d="M91.171875,123.203125 C89.4374913,125.265635 87.3984492,127.164054 85.0546875,128.898438 C82.7109258,130.632821 80.085952,132.132806 77.1796875,133.398438 C74.273423,134.664069 71.1211107,135.648434 67.7226562,136.351563 C64.3242018,137.054691 60.7031442,137.40625 56.859375,137.40625 C50.7187193,137.40625 45.2812737,136.210949 40.546875,133.820313 C35.8124763,131.429676 31.8164225,128.160177 28.5585938,124.011719 C25.300765,119.863261 22.8164148,114.976591 21.1054688,109.351563 C19.3945227,103.726534 18.5156252,97.6797198 18.46875,91.2109375 L18.46875,78.5546875 C18.46875,72.0859052 19.3124916,66.0390906 21,60.4140625 C22.6875084,54.7890344 25.1132654,49.8906459 28.2773438,45.71875 C31.4414221,41.5468541 35.3202895,38.2539183 39.9140625,35.8398438 C44.5078355,33.4257692 49.757783,32.21875 55.6640625,32.21875 C60.960964,32.21875 65.6952916,32.9453052 69.8671875,34.3984375 C74.0390834,35.8515698 77.624985,37.949205 80.625,40.6914063 C83.625015,43.4336075 86.0038975,46.7734178 87.7617188,50.7109375 C89.51954,54.6484572 90.6328102,59.0546631 91.1015625,63.9296875 L74.5078125,63.9296875 C74.0859354,61.1640487 73.429692,58.6796985 72.5390625,56.4765625 C71.648433,54.2734265 70.4531325,52.3984452 68.953125,50.8515625 C67.4531175,49.3046798 65.6367294,48.1210979 63.5039062,47.3007813 C61.3710831,46.4804646 58.851577,46.0703125 55.9453125,46.0703125 C52.3827947,46.0703125 49.3242315,46.94921 46.7695312,48.7070313 C44.214831,50.4648525 42.0937584,52.8320164 40.40625,55.8085938 C38.7187416,58.7851711 37.4765665,62.2304492 36.6796875,66.1445313 C35.8828085,70.0586133 35.4609377,74.1484162 35.4140625,78.4140625 L35.4140625,91.2109375 C35.4609377,95.4765838 35.8945271,99.554668 36.7148438,103.445313 C37.5351604,107.335957 38.82421,110.769516 40.5820312,113.746094 C42.3398525,116.722671 44.6015487,119.101554 47.3671875,120.882813 C50.1328263,122.664071 53.460918,123.578125 57.3515625,123.625 C58.9453205,123.625 60.5859291,123.519532 62.2734375,123.308594 C63.9609459,123.097655 65.5663986,122.757815 67.0898438,122.289063 C68.6132889,121.82031 70.0078062,121.22266 71.2734375,120.496094 C72.5390688,119.769528 73.5703085,118.867193 74.3671875,117.789063 L74.5078125,97.328125 L56.015625,97.328125 L56.015625,84.1796875 L91.03125,84.1796875 L91.171875,123.203125 Z M141.45,137.40625 C135.824972,137.40625 130.692211,136.468759 126.051562,134.59375 C121.410914,132.718741 117.438298,130.140641 114.133594,126.859375 C110.82889,123.578109 108.262509,119.699241 106.434375,115.222656 C104.606241,110.746071 103.692187,105.906276 103.692187,100.703125 L103.692187,97.8203125 C103.692187,91.7734073 104.664834,86.3359616 106.610156,81.5078125 C108.555478,76.6796634 111.157015,72.5547046 114.414844,69.1328125 C117.672673,65.7109204 121.46951,63.0859466 125.805469,61.2578125 C130.141428,59.4296784 134.699976,58.515625 139.48125,58.515625 C145.012528,58.515625 149.887479,59.441397 154.10625,61.2929688 C158.325021,63.1445405 161.85233,65.746077 164.688281,69.0976563 C167.524233,72.4492355 169.668743,76.421852 171.121875,81.015625 C172.575007,85.609398 173.301562,90.6484101 173.301562,96.1328125 L173.301562,103.234375 L120.567187,103.234375 C120.848439,106.187515 121.574994,108.929675 122.746875,111.460938 C123.918756,113.9922 125.453897,116.183584 127.352344,118.035156 C129.250791,119.886728 131.477331,121.339838 134.032031,122.394531 C136.586732,123.449224 139.387485,123.976563 142.434375,123.976563 C146.700021,123.976563 150.625763,123.132821 154.211719,121.445313 C157.797674,119.757804 160.715614,117.437515 162.965625,114.484375 L172.10625,123.0625 C170.887494,124.890634 169.317197,126.660148 167.395312,128.371094 C165.473428,130.08204 163.22345,131.605462 160.645312,132.941406 C158.067175,134.27735 155.172672,135.355465 151.961719,136.175781 C148.750765,136.996098 145.246894,137.40625 141.45,137.40625 Z M139.410937,72.0859375 C137.067176,72.0859375 134.88751,72.5078083 132.871875,73.3515625 C130.85624,74.1953167 129.05157,75.4257732 127.457813,77.0429688 C125.864055,78.6601643 124.516412,80.6288946 123.414844,82.9492188 C122.313276,85.2695429 121.528127,87.9062352 121.059375,90.859375 L156.707812,90.859375 L156.707812,89.59375 C156.567187,87.3437388 156.133597,85.1757917 155.407031,83.0898438 C154.680465,81.0038958 153.61407,79.1406332 152.207812,77.5 C150.801555,75.8593668 149.032042,74.5468799 146.899219,73.5625 C144.766396,72.5781201 142.270327,72.0859375 139.410937,72.0859375 Z M211.80625,41.5 L211.80625,59.921875 L240.564063,59.921875 L240.564063,72.4375 L211.80625,72.4375 L211.80625,108.929688 C211.80625,111.789077 212.14609,114.156241 212.825781,116.03125 C213.505472,117.906259 214.454681,119.406244 215.673438,120.53125 C216.892194,121.656256 218.321867,122.441404 219.9625,122.886719 C221.603133,123.332033 223.407803,123.554688 225.376563,123.554688 C226.829695,123.554688 228.341398,123.472657 229.911719,123.308594 C231.482039,123.14453 233.005461,122.957032 234.482031,122.746094 C235.958601,122.535155 237.317963,122.300783 238.560156,122.042969 C239.80235,121.785155 240.845308,121.539064 241.689063,121.304688 L243.5875,132.90625 C242.368744,133.609379 240.903915,134.253903 239.192969,134.839844 C237.482023,135.425784 235.61876,135.906248 233.603125,136.28125 C231.58749,136.656252 229.489855,136.949218 227.310156,137.160156 C225.130458,137.371095 222.985948,137.476563 220.876563,137.476563 C217.079669,137.476563 213.599235,136.949224 210.435156,135.894531 C207.271078,134.839838 204.552355,133.19923 202.278906,130.972656 C200.005457,128.746083 198.224225,125.886736 196.935156,122.394531 C195.646087,118.902326 195.001563,114.718774 195.001563,109.84375 L195.001563,72.4375 L176.439063,72.4375 L176.439063,59.921875 L195.001563,59.921875 L195.001563,41.5 L211.80625,41.5 Z M344.310938,59.921875 L384.88125,59.921875 L384.88125,122.078125 L407.451563,122.078125 L407.451563,136 L344.310938,136 L344.310938,122.078125 L367.935938,122.078125 L367.935938,73.9140625 L344.310938,73.9140625 L344.310938,59.921875 Z M366.529688,40.234375 C366.529688,37.6093619 367.373429,35.4414148 369.060938,33.7304688 C370.748446,32.0195227 373.11561,31.1640625 376.1625,31.1640625 C379.256265,31.1640625 381.658585,32.0195227 383.369531,33.7304688 C385.080477,35.4414148 385.935938,37.6093619 385.935938,40.234375 C385.935938,42.8593881 385.080477,45.0273352 383.369531,46.7382813 C381.658585,48.4492273 379.256265,49.3046875 376.1625,49.3046875 C373.11561,49.3046875 370.748446,48.4492273 369.060938,46.7382813 C367.373429,45.0273352 366.529688,42.8593881 366.529688,40.234375 Z M435.95625,59.921875 L437.010938,70.46875 C439.776576,66.671856 443.116387,63.7304792 447.030469,61.6445313 C450.944551,59.5585833 455.292164,58.515625 460.073438,58.515625 C463.964082,58.515625 467.514828,59.0781194 470.725781,60.203125 C473.936735,61.3281306 476.702332,63.0859255 479.022656,65.4765625 C481.34298,67.8671995 483.14765,70.9609185 484.436719,74.7578125 C485.725788,78.5547065 486.370313,83.1249733 486.370313,88.46875 L486.370313,136 L469.565625,136 L469.565625,88.75 C469.565625,85.6093593 469.202347,82.9843855 468.475781,80.875 C467.749215,78.7656145 466.717975,77.0781313 465.382031,75.8125 C464.046087,74.5468687 462.417197,73.6445339 460.495313,73.1054688 C458.573428,72.5664036 456.393762,72.296875 453.95625,72.296875 C450.253106,72.296875 447.030482,73.1171793 444.288281,74.7578125 C441.54608,76.3984457 439.331258,78.6249859 437.64375,81.4375 L437.64375,136 L420.76875,136 L420.76875,59.921875 L435.95625,59.921875 Z M516.007812,136 L516.007812,72.4375 L495.546875,72.4375 L495.546875,59.921875 L516.007812,59.921875 L516.007812,55.2109375 C516.007812,50.2890379 516.746086,45.9414251 518.222656,42.1679688 C519.699226,38.3945124 521.832017,35.2304815 524.621094,32.6757813 C527.41017,30.121081 530.773418,28.1757879 534.710938,26.8398438 C538.648457,25.5038996 543.0781,24.8359375 548,24.8359375 C551.234391,24.8359375 554.316392,25.0820288 557.246094,25.5742188 C560.175796,26.0664087 563.234359,26.6406217 566.421875,27.296875 L564.945312,40.65625 C563.117178,40.1406224 560.984387,39.6835957 558.546875,39.2851563 C556.109363,38.8867168 553.367203,38.6875 550.320312,38.6875 C544.273407,38.6875 539.855483,40.1171732 537.066406,42.9765625 C534.27733,45.8359518 532.882812,49.914036 532.882812,55.2109375 L532.882812,59.921875 L561.148438,59.921875 L561.148438,72.4375 L532.882812,72.4375 L532.882812,136 L516.007812,136 Z M564.803125,97.2578125 C564.803125,91.7734101 565.611711,86.6640862 567.228906,81.9296875 C568.846102,77.1952888 571.166391,73.0937673 574.189844,69.625 C577.213296,66.1562327 580.904666,63.4375098 585.264063,61.46875 C589.623459,59.4999902 594.568722,58.515625 600.1,58.515625 C605.678153,58.515625 610.658572,59.4999902 615.041406,61.46875 C619.424241,63.4375098 623.127329,66.1562327 626.150781,69.625 C629.174234,73.0937673 631.482805,77.1952888 633.076563,81.9296875 C634.67032,86.6640862 635.467188,91.7734101 635.467188,97.2578125 L635.467188,98.734375 C635.467188,104.265653 634.67032,109.398414 633.076563,114.132813 C631.482805,118.867211 629.174234,122.957014 626.150781,126.402344 C623.127329,129.847673 619.435959,132.554678 615.076563,134.523438 C610.717166,136.492197 605.771903,137.476563 600.240625,137.476563 C594.662472,137.476563 589.682053,136.492197 585.299219,134.523438 C580.916384,132.554678 577.213296,129.847673 574.189844,126.402344 C571.166391,122.957014 568.846102,118.867211 567.228906,114.132813 C565.611711,109.398414 564.803125,104.265653 564.803125,98.734375 L564.803125,97.2578125 Z M581.607813,98.734375 C581.607813,102.203142 581.97109,105.460922 582.697656,108.507813 C583.424222,111.554703 584.549211,114.23827 586.072656,116.558594 C587.596101,118.878918 589.529676,120.707025 591.873438,122.042969 C594.217199,123.378913 597.006234,124.046875 600.240625,124.046875 C603.381266,124.046875 606.111707,123.378913 608.432031,122.042969 C610.752355,120.707025 612.674211,118.878918 614.197656,116.558594 C615.721101,114.23827 616.84609,111.554703 617.572656,108.507813 C618.299222,105.460922 618.6625,102.203142 618.6625,98.734375 L618.6625,97.2578125 C618.6625,93.8827956 618.299222,90.6718902 617.572656,87.625 C616.84609,84.5781098 615.721101,81.9062615 614.197656,79.609375 C612.674211,77.3124885 610.752355,75.4843818 608.432031,74.125 C606.111707,72.7656182 603.334391,72.0859375 600.1,72.0859375 C596.912484,72.0859375 594.146887,72.7656182 591.803125,74.125 C589.459363,75.4843818 587.537508,77.3124885 586.0375,79.609375 C584.537492,81.9062615 583.424222,84.5781098 582.697656,87.625 C581.97109,90.6718902 581.607813,93.8827956 581.607813,97.2578125 L581.607813,98.734375 Z" id="Get-info" fill="#000000" transform="translate(326.967969, 81.156250) rotate(-360.000000) translate(-326.967969, -81.156250) "></path>
            <rect id="Rectangle-6-Copy-32" fill="url(#linearGradient-1)" transform="translate(292.000000, 142.500000) rotate(-360.000000) translate(-292.000000, -142.500000) " x="257" y="135" width="70" height="15"></rect>
        </g>
    </g>
</svg>