<svg xmlns="http://www.w3.org/2000/svg" xmlns:xlink="http://www.w3.org/1999/xlink" viewBox="0 0 881.61 358.34"><defs><style>.cls-1{fill:url(#linear-gradient);}.cls-2{fill:url(#linear-gradient-2);}.cls-3{fill:#433e3c;}</style><linearGradient id="linear-gradient" x1="676.28" y1="102.79" x2="778.69" y2="102.79" gradientUnits="userSpaceOnUse"><stop offset="0" stop-color="#5fa731"/><stop offset="1" stop-color="#75b72d"/></linearGradient><linearGradient id="linear-gradient-2" x1="778.69" y1="102.86" x2="881.61" y2="102.86" gradientUnits="userSpaceOnUse"><stop offset="0" stop-color="#255427"/><stop offset="1" stop-color="#0e8e3a"/></linearGradient></defs><title>Asset 1xxxhdpi</title><g id="Layer_2" data-name="Layer 2"><g id="Camada_1" data-name="Camada 1"><path class="cls-1" d="M778.69,0V205.53s-6,1-14.07-7.29-84.4-84.66-84.4-84.66-8.86-12,0-21.62S767,4.69,767,4.69A17.14,17.14,0,0,1,778.69,0Z"/><path class="cls-2" d="M778.69,56.79l35.43,35.43s10.42,11.72,0,21.62S778.69,149,778.69,149v56.53s4.69,2.08,14.33-7.55l83.62-83.62s11.2-11.72,0-23.18-84.4-84.92-84.4-84.92S786.5,0,778.69,0Z"/><path class="cls-3" d="M7.06,338.4c-4-2.15-7.06-6.75-7.06-12.89a14.86,14.86,0,0,1,15-15,16.2,16.2,0,0,1,8,2.15c15.65,10.43,31.91,15.65,46.64,15.65,16,0,25.16-6.75,25.16-17.49v-.61c0-12.58-17.18-16.87-36.2-22.7C34.67,280.72,8,270.9,8,239.91v-.61c0-30.68,25.47-49.4,57.68-49.4,17.18,0,35.28,4.91,50.93,13.19,5.21,2.76,8.9,7.67,8.9,14.11,0,8.59-6.75,15-15.34,15a14.56,14.56,0,0,1-7.36-1.84c-13.19-6.75-26.69-11-38-11-14.42,0-22.7,6.75-22.7,16v.61c0,12,17.49,16.87,36.51,23,23.62,7.37,50.32,18.1,50.32,47.25v.61c0,34.06-26.39,50.93-60.14,50.93A110.72,110.72,0,0,1,7.06,338.4Z"/><path class="cls-3" d="M148.5,192.66V165a18.56,18.56,0,0,1,37.12,0v27.61h29.15a16,16,0,1,1,0,31.91H185.63V304c0,14.42,7.36,20.25,19.94,20.25,4.3,0,8-.92,9.21-.92,8.28,0,15.65,6.75,15.65,15.34a16,16,0,0,1-9.82,14.42,73.89,73.89,0,0,1-25.47,4.29c-27.31,0-46.64-12-46.64-47.56V224.57"/><path class="cls-3" d="M230.42,274.58V274c0-46.33,36.82-84.68,86.52-84.68s86.22,37.74,86.22,84.07V274c0,46-36.82,84.38-86.83,84.38C266.93,358.34,230.42,320.6,230.42,274.58Zm135.61,0V274c0-28.53-20.56-52.16-49.7-52.16-29.76,0-48.78,23.32-48.78,51.55V274c0,28.23,20.56,51.85,49.4,51.85C347,325.82,366,302.5,366,274.58Z"/><path class="cls-3" d="M417.89,209.53a18.34,18.34,0,0,1,18.41-18.72A18.6,18.6,0,0,1,455,209.53v8c10.43-15,25.47-28.23,50.62-28.23,36.51,0,57.68,24.55,57.68,62v86.52a18.08,18.08,0,0,1-18.41,18.41,18.34,18.34,0,0,1-18.72-18.41V262.61c0-25.16-12.58-39.58-34.67-39.58-21.48,0-36.51,15-36.51,40.19v74.55a18.56,18.56,0,0,1-37.13,0Z"/><path class="cls-3" d="M644.61,262.31h51.57c-2.45-23.93-16.57-42.65-41.11-42.65-22.7,0-38.66,17.49-42,42.65a73.67,73.67,0,0,0,.31,24.55C617.33,313.24,636,328,660,328c15.65,0,27.92-5.52,38.35-14.11a13.82,13.82,0,0,1,9.51-3.38,14.61,14.61,0,0,1,14.73,15,16.21,16.21,0,0,1-4.91,11.35c-14.73,13.19-33.13,21.48-58.29,21.48-46.94,0-83.15-34.06-83.15-84.07v-.61c0-46.33,32.83-84.37,79.16-84.37,51.55,0,77,42.34,77,79.77a17.36,17.36,0,0,1-17.49,17.79H644.61s-10.9-.47-11.07-12.28C633.49,270.7,636.05,263.1,644.61,262.31Z"/></g></g></svg>